<svg width="300" height="64" viewBox="0 0 300 64" fill="none" xmlns="http://www.w3.org/2000/svg">
<path fill-rule="evenodd" clip-rule="evenodd" d="M52.3218 41.4565C48.7557 49.1068 40.9968 54.4091 31.9996 54.4091C19.6232 54.4091 9.59021 44.3761 9.59021 31.9997C9.59021 19.6234 19.6232 9.59033 31.9996 9.59033C41.0281 9.59033 48.8096 14.9295 52.3588 22.6228C51.2948 23.7566 50.442 25.0536 49.8004 26.5138C49.0865 28.1966 48.7295 30.0452 48.7295 32.0594C48.7295 34.0737 49.0865 35.9222 49.8004 37.605C50.4346 39.0482 51.275 40.3321 52.3218 41.4565ZM33.943 46.2566C31.8777 46.2566 29.9527 45.9251 28.1679 45.2622C26.4086 44.5738 24.8788 43.6049 23.5785 42.3555C22.2781 41.1062 21.2583 39.6401 20.5189 37.9573C19.8049 36.2745 19.448 34.426 19.448 32.4117C19.448 30.3975 19.8049 28.549 20.5189 26.8662C21.2583 25.1834 22.2781 23.7173 23.5785 22.4679C24.9043 21.2186 26.4469 20.2625 28.2062 19.5995C29.9655 18.9111 31.8905 18.5669 33.9812 18.5669C36.3014 18.5669 38.3922 18.9749 40.2535 19.7908C42.1402 20.5812 43.721 21.754 44.9959 23.3093L41.0184 26.9809C40.1005 25.9355 39.0806 25.1579 37.9587 24.6479C36.8369 24.1125 35.613 23.8448 34.2872 23.8448C33.0378 23.8448 31.8905 24.0488 30.8451 24.4567C29.7997 24.8647 28.8946 25.4511 28.1297 26.216C27.3648 26.9809 26.7656 27.886 26.3322 28.9314C25.9242 29.9768 25.7202 31.1369 25.7202 32.4117C25.7202 33.6866 25.9242 34.8467 26.3322 35.8921C26.7656 36.9374 27.3648 37.8426 28.1297 38.6075C28.8946 39.3724 29.7997 39.9588 30.8451 40.3668C31.8905 40.7747 33.0378 40.9787 34.2872 40.9787C35.613 40.9787 36.8369 40.7237 37.9587 40.2138C39.0806 39.6784 40.1005 38.8752 41.0184 37.8043L44.9959 41.4759C43.721 43.0312 42.1402 44.2168 40.2535 45.0327C38.3922 45.8486 36.2887 46.2566 33.943 46.2566Z" fill="#007DFC"/>
<path fill-rule="evenodd" clip-rule="evenodd" d="M3.6153 32.0001C3.6153 16.3234 16.3238 3.61487 32.0005 3.61487C43.2005 3.61487 52.8854 10.1015 57.5035 19.5228C57.6958 19.4409 57.8908 19.3627 58.0885 19.2882C58.8231 19.0007 59.5865 18.7733 60.3789 18.6059C55.3542 7.97877 44.5359 0.626953 32.0005 0.626953C14.6736 0.626953 0.62738 14.6732 0.62738 32.0001C0.62738 49.327 14.6736 63.3732 32.0005 63.3732C44.4579 63.3732 55.2194 56.1127 60.2843 45.5924C59.5167 45.4328 58.772 45.2189 58.0503 44.9508C57.8309 44.865 57.6152 44.7748 57.403 44.6803C52.746 53.9917 43.1199 60.3853 32.0005 60.3853C16.3238 60.3853 3.6153 47.6768 3.6153 32.0001ZM59.4109 39.4022C59.8218 39.6555 60.2606 39.8732 60.7274 40.0554C61.2016 40.2404 61.6968 40.3835 62.2129 40.4846C62.9692 37.786 63.3736 34.9403 63.3736 32.0001C63.3736 29.129 62.988 26.3479 62.2656 23.7059C61.7304 23.8075 61.2177 23.954 60.7274 24.1453C60.278 24.3207 59.8544 24.5291 59.4568 24.7705C60.063 27.0787 60.3857 29.5017 60.3857 32.0001C60.3857 34.5608 60.0466 37.0423 59.4109 39.4022Z" fill="#007DFC"/>
<path fill-rule="evenodd" clip-rule="evenodd" d="M4.24165 32C4.24165 16.6695 16.6695 4.24165 32 4.24165C42.9459 4.24165 52.4121 10.5772 56.9315 19.7814C57.3061 19.6021 57.6918 19.4377 58.0885 19.2882C59.0176 18.9246 59.993 18.6571 61.0146 18.4855C55.9201 7.56672 44.8437 0 32 0C14.3269 0 0 14.3269 0 32C0 49.6731 14.3269 64 32 64C44.7662 64 55.7864 56.5243 60.9218 45.7117C59.9273 45.5462 58.9702 45.2925 58.0502 44.9508C57.6323 44.7873 57.2273 44.6079 56.8352 44.4127C52.2787 53.5117 42.8688 59.7584 32 59.7584C16.6695 59.7584 4.24165 47.3305 4.24165 32ZM58.8606 39.0292C59.4232 39.4472 60.0455 39.7893 60.7274 40.0554C61.3892 40.3137 62.0918 40.4902 62.8353 40.585C63.5943 37.8529 64 34.9738 64 32C64 29.0965 63.6133 26.2834 62.8886 23.6092C62.1254 23.7022 61.405 23.881 60.7274 24.1454C60.063 24.4047 59.4552 24.7361 58.9041 25.1395C59.4619 27.3337 59.7584 29.6322 59.7584 32C59.7584 34.4285 59.4465 36.7842 58.8606 39.0292Z" fill="#007DFC"/>
<path d="M86.032 33.788C84.736 33.788 83.528 33.58 82.408 33.164C81.304 32.732 80.344 32.124 79.528 31.34C78.712 30.556 78.072 29.636 77.608 28.58C77.16 27.524 76.936 26.364 76.936 25.1C76.936 23.836 77.16 22.676 77.608 21.62C78.072 20.564 78.712 19.644 79.528 18.86C80.36 18.076 81.328 17.476 82.432 17.06C83.536 16.628 84.744 16.412 86.056 16.412C87.512 16.412 88.824 16.668 89.992 17.18C91.176 17.676 92.168 18.412 92.968 19.388L90.472 21.692C89.896 21.036 89.256 20.548 88.552 20.228C87.848 19.892 87.08 19.724 86.248 19.724C85.464 19.724 84.744 19.852 84.088 20.108C83.432 20.364 82.864 20.732 82.384 21.212C81.904 21.692 81.528 22.26 81.256 22.916C81 23.572 80.872 24.3 80.872 25.1C80.872 25.9 81 26.628 81.256 27.284C81.528 27.94 81.904 28.508 82.384 28.988C82.864 29.468 83.432 29.836 84.088 30.092C84.744 30.348 85.464 30.476 86.248 30.476C87.08 30.476 87.848 30.316 88.552 29.996C89.256 29.66 89.896 29.156 90.472 28.484L92.968 30.788C92.168 31.764 91.176 32.508 89.992 33.02C88.824 33.532 87.504 33.788 86.032 33.788ZM103.402 33.788C102.074 33.788 100.842 33.572 99.706 33.14C98.586 32.708 97.61 32.1 96.778 31.316C95.962 30.532 95.322 29.612 94.858 28.556C94.41 27.5 94.186 26.348 94.186 25.1C94.186 23.852 94.41 22.7 94.858 21.644C95.322 20.588 95.97 19.668 96.802 18.884C97.634 18.1 98.61 17.492 99.73 17.06C100.85 16.628 102.066 16.412 103.378 16.412C104.706 16.412 105.922 16.628 107.026 17.06C108.146 17.492 109.114 18.1 109.93 18.884C110.762 19.668 111.41 20.588 111.874 21.644C112.338 22.684 112.57 23.836 112.57 25.1C112.57 26.348 112.338 27.508 111.874 28.58C111.41 29.636 110.762 30.556 109.93 31.34C109.114 32.108 108.146 32.708 107.026 33.14C105.922 33.572 104.714 33.788 103.402 33.788ZM103.378 30.476C104.13 30.476 104.818 30.348 105.442 30.092C106.082 29.836 106.642 29.468 107.122 28.988C107.602 28.508 107.97 27.94 108.226 27.284C108.498 26.628 108.634 25.9 108.634 25.1C108.634 24.3 108.498 23.572 108.226 22.916C107.97 22.26 107.602 21.692 107.122 21.212C106.658 20.732 106.106 20.364 105.466 20.108C104.826 19.852 104.13 19.724 103.378 19.724C102.626 19.724 101.93 19.852 101.29 20.108C100.666 20.364 100.114 20.732 99.634 21.212C99.154 21.692 98.778 22.26 98.506 22.916C98.25 23.572 98.122 24.3 98.122 25.1C98.122 25.884 98.25 26.612 98.506 27.284C98.778 27.94 99.146 28.508 99.61 28.988C100.09 29.468 100.65 29.836 101.29 30.092C101.93 30.348 102.626 30.476 103.378 30.476ZM115.492 33.5V16.7H118.708L125.86 28.556H124.156L131.188 16.7H134.38L134.428 33.5H130.78L130.756 22.292H131.428L125.812 31.724H124.06L118.324 22.292H119.14V33.5H115.492ZM138.414 33.5V16.7H141.63L148.782 28.556H147.078L154.11 16.7H157.302L157.35 33.5H153.702L153.678 22.292H154.35L148.734 31.724H146.982L141.246 22.292H142.062V33.5H138.414ZM164.912 23.468H173V26.492H164.912V23.468ZM165.2 30.38H174.344V33.5H161.336V16.7H174.032V19.82H165.2V30.38ZM177.437 33.5V16.7H184.709C186.213 16.7 187.509 16.948 188.597 17.444C189.685 17.924 190.525 18.62 191.117 19.532C191.709 20.444 192.005 21.532 192.005 22.796C192.005 24.044 191.709 25.124 191.117 26.036C190.525 26.932 189.685 27.62 188.597 28.1C187.509 28.58 186.213 28.82 184.709 28.82H179.597L181.325 27.116V33.5H177.437ZM188.117 33.5L183.917 27.404H188.069L192.317 33.5H188.117ZM181.325 27.548L179.597 25.724H184.493C185.693 25.724 186.589 25.468 187.181 24.956C187.773 24.428 188.069 23.708 188.069 22.796C188.069 21.868 187.773 21.148 187.181 20.636C186.589 20.124 185.693 19.868 184.493 19.868H179.597L181.325 18.02V27.548ZM203.126 33.788C201.83 33.788 200.622 33.58 199.502 33.164C198.398 32.732 197.438 32.124 196.622 31.34C195.806 30.556 195.166 29.636 194.702 28.58C194.254 27.524 194.03 26.364 194.03 25.1C194.03 23.836 194.254 22.676 194.702 21.62C195.166 20.564 195.806 19.644 196.622 18.86C197.454 18.076 198.422 17.476 199.526 17.06C200.63 16.628 201.838 16.412 203.15 16.412C204.606 16.412 205.918 16.668 207.086 17.18C208.27 17.676 209.262 18.412 210.062 19.388L207.566 21.692C206.99 21.036 206.35 20.548 205.646 20.228C204.942 19.892 204.174 19.724 203.342 19.724C202.558 19.724 201.838 19.852 201.182 20.108C200.526 20.364 199.958 20.732 199.478 21.212C198.998 21.692 198.622 22.26 198.35 22.916C198.094 23.572 197.966 24.3 197.966 25.1C197.966 25.9 198.094 26.628 198.35 27.284C198.622 27.94 198.998 28.508 199.478 28.988C199.958 29.468 200.526 29.836 201.182 30.092C201.838 30.348 202.558 30.476 203.342 30.476C204.174 30.476 204.942 30.316 205.646 29.996C206.35 29.66 206.99 29.156 207.566 28.484L210.062 30.788C209.262 31.764 208.27 32.508 207.086 33.02C205.918 33.532 204.598 33.788 203.126 33.788ZM216.263 23.468H224.351V26.492H216.263V23.468ZM216.551 30.38H225.695V33.5H212.687V16.7H225.383V19.82H216.551V30.38ZM240.309 16.7H244.197V33.5H240.309V16.7ZM232.677 33.5H228.789V16.7H232.677V33.5ZM240.597 26.612H232.389V23.324H240.597V26.612ZM256.332 33.788C255.004 33.788 253.772 33.572 252.636 33.14C251.516 32.708 250.54 32.1 249.708 31.316C248.892 30.532 248.252 29.612 247.788 28.556C247.34 27.5 247.116 26.348 247.116 25.1C247.116 23.852 247.34 22.7 247.788 21.644C248.252 20.588 248.9 19.668 249.732 18.884C250.564 18.1 251.54 17.492 252.66 17.06C253.78 16.628 254.996 16.412 256.308 16.412C257.636 16.412 258.852 16.628 259.956 17.06C261.076 17.492 262.044 18.1 262.86 18.884C263.692 19.668 264.34 20.588 264.804 21.644C265.268 22.684 265.5 23.836 265.5 25.1C265.5 26.348 265.268 27.508 264.804 28.58C264.34 29.636 263.692 30.556 262.86 31.34C262.044 32.108 261.076 32.708 259.956 33.14C258.852 33.572 257.644 33.788 256.332 33.788ZM256.308 30.476C257.06 30.476 257.748 30.348 258.372 30.092C259.012 29.836 259.572 29.468 260.052 28.988C260.532 28.508 260.9 27.94 261.156 27.284C261.428 26.628 261.564 25.9 261.564 25.1C261.564 24.3 261.428 23.572 261.156 22.916C260.9 22.26 260.532 21.692 260.052 21.212C259.588 20.732 259.036 20.364 258.396 20.108C257.756 19.852 257.06 19.724 256.308 19.724C255.556 19.724 254.86 19.852 254.22 20.108C253.596 20.364 253.044 20.732 252.564 21.212C252.084 21.692 251.708 22.26 251.436 22.916C251.18 23.572 251.052 24.3 251.052 25.1C251.052 25.884 251.18 26.612 251.436 27.284C251.708 27.94 252.076 28.508 252.54 28.988C253.02 29.468 253.58 29.836 254.22 30.092C254.86 30.348 255.556 30.476 256.308 30.476ZM268.422 33.5V16.7H275.694C277.198 16.7 278.494 16.948 279.582 17.444C280.67 17.924 281.51 18.62 282.102 19.532C282.694 20.444 282.99 21.532 282.99 22.796C282.99 24.044 282.694 25.124 282.102 26.036C281.51 26.948 280.67 27.652 279.582 28.148C278.494 28.628 277.198 28.868 275.694 28.868H270.582L272.31 27.116V33.5H268.422ZM272.31 27.548L270.582 25.7H275.478C276.678 25.7 277.574 25.444 278.166 24.932C278.758 24.42 279.054 23.708 279.054 22.796C279.054 21.868 278.758 21.148 278.166 20.636C277.574 20.124 276.678 19.868 275.478 19.868H270.582L272.31 18.02V27.548ZM289.341 23.468H297.429V26.492H289.341V23.468ZM289.629 30.38H298.773V33.5H285.765V16.7H298.461V19.82H289.629V30.38Z" fill="#161C24"/>
<path d="M77.2495 52.5V44.17H80.4982C81.2281 44.17 81.8508 44.285 82.3665 44.5151C82.8822 44.7452 83.2788 45.0784 83.5565 45.5147C83.8342 45.951 83.973 46.4707 83.973 47.0736C83.973 47.6765 83.8342 48.1962 83.5565 48.6325C83.2788 49.0609 82.8822 49.3941 82.3665 49.6321C81.8508 49.8622 81.2281 49.9772 80.4982 49.9772H77.904L78.4395 49.4179V52.5H77.2495ZM78.4395 49.5369L77.904 48.9419H80.4625C81.2241 48.9419 81.7993 48.7793 82.188 48.454C82.5847 48.1287 82.783 47.6686 82.783 47.0736C82.783 46.4786 82.5847 46.0185 82.188 45.6932C81.7993 45.3679 81.2241 45.2053 80.4625 45.2053H77.904L78.4395 44.6103V49.5369ZM89.5979 52.5952C88.9632 52.5952 88.3722 52.4881 87.8248 52.2739C87.2853 52.0597 86.8173 51.7622 86.4206 51.3814C86.0239 50.9927 85.7145 50.5405 85.4924 50.0248C85.2703 49.5091 85.1592 48.9459 85.1592 48.335C85.1592 47.7241 85.2703 47.1609 85.4924 46.6452C85.7145 46.1295 86.0239 45.6813 86.4206 45.3005C86.8173 44.9118 87.2853 44.6103 87.8248 44.3961C88.3643 44.1819 88.9553 44.0748 89.5979 44.0748C90.2326 44.0748 90.8157 44.1819 91.3472 44.3961C91.8867 44.6024 92.3547 44.8999 92.7514 45.2886C93.156 45.6694 93.4654 46.1176 93.6796 46.6333C93.9017 47.149 94.0128 47.7162 94.0128 48.335C94.0128 48.9538 93.9017 49.521 93.6796 50.0367C93.4654 50.5524 93.156 51.0046 92.7514 51.3933C92.3547 51.7741 91.8867 52.0716 91.3472 52.2858C90.8157 52.4921 90.2326 52.5952 89.5979 52.5952ZM89.5979 51.5361C90.058 51.5361 90.4825 51.4568 90.8712 51.2981C91.2679 51.1394 91.609 50.9173 91.8946 50.6317C92.1881 50.3382 92.4142 49.997 92.5729 49.6083C92.7395 49.2196 92.8228 48.7951 92.8228 48.335C92.8228 47.8749 92.7395 47.4504 92.5729 47.0617C92.4142 46.673 92.1881 46.3358 91.8946 46.0502C91.609 45.7567 91.2679 45.5306 90.8712 45.3719C90.4825 45.2132 90.058 45.1339 89.5979 45.1339C89.1298 45.1339 88.6975 45.2132 88.3008 45.3719C87.9121 45.5306 87.5709 45.7567 87.2774 46.0502C86.9839 46.3358 86.7538 46.673 86.5872 47.0617C86.4285 47.4504 86.3492 47.8749 86.3492 48.335C86.3492 48.7951 86.4285 49.2196 86.5872 49.6083C86.7538 49.997 86.9839 50.3382 87.2774 50.6317C87.5709 50.9173 87.9121 51.1394 88.3008 51.2981C88.6975 51.4568 89.1298 51.5361 89.5979 51.5361ZM97.4919 52.5L94.7073 44.17H95.933L98.4915 51.8574H97.8727L100.526 44.17H101.621L104.215 51.8574H103.62L106.215 44.17H107.345L104.56 52.5H103.311L100.883 45.3719H101.205L98.7652 52.5H97.4919ZM109.884 47.7638H114.168V48.7753H109.884V47.7638ZM109.991 51.4647H114.846V52.5H108.801V44.17H114.679V45.2053H109.991V51.4647ZM116.773 52.5V44.17H120.022C120.751 44.17 121.374 44.285 121.89 44.5151C122.406 44.7452 122.802 45.0784 123.08 45.5147C123.358 45.951 123.496 46.4707 123.496 47.0736C123.496 47.6765 123.358 48.1962 123.08 48.6325C122.802 49.0609 122.406 49.3901 121.89 49.6202C121.374 49.8503 120.751 49.9653 120.022 49.9653H117.427L117.963 49.4179V52.5H116.773ZM122.342 52.5L120.224 49.4774H121.497L123.639 52.5H122.342ZM117.963 49.5369L117.427 48.9538H119.986C120.747 48.9538 121.323 48.7912 121.711 48.4659C122.108 48.1327 122.306 47.6686 122.306 47.0736C122.306 46.4786 122.108 46.0185 121.711 45.6932C121.323 45.3679 120.747 45.2053 119.986 45.2053H117.427L117.963 44.6103V49.5369ZM125.419 52.5V44.17H126.609V52.5H125.419ZM129.103 52.5V44.17H130.079L135.588 51.0125H135.077V44.17H136.267V52.5H135.291L129.781 45.6575H130.293V52.5H129.103ZM142.52 52.5952C141.878 52.5952 141.287 52.4921 140.747 52.2858C140.208 52.0716 139.74 51.7741 139.343 51.3933C138.946 51.0046 138.637 50.5524 138.415 50.0367C138.193 49.521 138.082 48.9538 138.082 48.335C138.082 47.7162 138.193 47.149 138.415 46.6333C138.637 46.1176 138.946 45.6694 139.343 45.2886C139.748 44.8999 140.22 44.6024 140.759 44.3961C141.299 44.1819 141.894 44.0748 142.544 44.0748C143.203 44.0748 143.806 44.1819 144.353 44.3961C144.9 44.6103 145.364 44.9316 145.745 45.36L145.007 46.0978C144.666 45.7646 144.293 45.5226 143.889 45.3719C143.492 45.2132 143.06 45.1339 142.592 45.1339C142.116 45.1339 141.671 45.2132 141.259 45.3719C140.854 45.5306 140.501 45.7527 140.2 46.0383C139.906 46.3239 139.676 46.665 139.51 47.0617C139.351 47.4504 139.272 47.8749 139.272 48.335C139.272 48.7872 139.351 49.2116 139.51 49.6083C139.676 49.997 139.906 50.3382 140.2 50.6317C140.501 50.9173 140.854 51.1394 141.259 51.2981C141.664 51.4568 142.104 51.5361 142.58 51.5361C143.024 51.5361 143.449 51.4687 143.853 51.3338C144.266 51.191 144.646 50.957 144.996 50.6317L145.674 51.5361C145.261 51.8852 144.777 52.1509 144.222 52.3334C143.675 52.5079 143.107 52.5952 142.52 52.5952ZM144.531 51.3814V48.2874H145.674V51.5361L144.531 51.3814ZM152.231 47.7638H156.515V48.7753H152.231V47.7638ZM152.338 51.4647H157.193V52.5H151.148V44.17H157.027V45.2053H152.338V51.4647ZM158.316 49.7273V48.7396H161.518V49.7273H158.316ZM170.364 52.5952C169.729 52.5952 169.142 52.4921 168.602 52.2858C168.071 52.0716 167.607 51.7741 167.21 51.3933C166.821 51.0046 166.516 50.5524 166.294 50.0367C166.072 49.521 165.961 48.9538 165.961 48.335C165.961 47.7162 166.072 47.149 166.294 46.6333C166.516 46.1176 166.825 45.6694 167.222 45.2886C167.619 44.8999 168.083 44.6024 168.614 44.3961C169.154 44.1819 169.741 44.0748 170.376 44.0748C171.018 44.0748 171.609 44.1859 172.149 44.408C172.696 44.6222 173.16 44.9435 173.541 45.3719L172.767 46.1216C172.45 45.7884 172.093 45.5425 171.696 45.3838C171.3 45.2172 170.875 45.1339 170.423 45.1339C169.955 45.1339 169.519 45.2132 169.114 45.3719C168.717 45.5306 168.372 45.7527 168.079 46.0383C167.785 46.3239 167.555 46.665 167.389 47.0617C167.23 47.4504 167.151 47.8749 167.151 48.335C167.151 48.7951 167.23 49.2235 167.389 49.6202C167.555 50.0089 167.785 50.3461 168.079 50.6317C168.372 50.9173 168.717 51.1394 169.114 51.2981C169.519 51.4568 169.955 51.5361 170.423 51.5361C170.875 51.5361 171.3 51.4568 171.696 51.2981C172.093 51.1315 172.45 50.8776 172.767 50.5365L173.541 51.2862C173.16 51.7146 172.696 52.0399 172.149 52.262C171.609 52.4841 171.014 52.5952 170.364 52.5952ZM178.825 52.5952C178.19 52.5952 177.599 52.4881 177.052 52.2739C176.512 52.0597 176.044 51.7622 175.647 51.3814C175.251 50.9927 174.941 50.5405 174.719 50.0248C174.497 49.5091 174.386 48.9459 174.386 48.335C174.386 47.7241 174.497 47.1609 174.719 46.6452C174.941 46.1295 175.251 45.6813 175.647 45.3005C176.044 44.9118 176.512 44.6103 177.052 44.3961C177.591 44.1819 178.182 44.0748 178.825 44.0748C179.459 44.0748 180.042 44.1819 180.574 44.3961C181.113 44.6024 181.581 44.8999 181.978 45.2886C182.383 45.6694 182.692 46.1176 182.906 46.6333C183.128 47.149 183.24 47.7162 183.24 48.335C183.24 48.9538 183.128 49.521 182.906 50.0367C182.692 50.5524 182.383 51.0046 181.978 51.3933C181.581 51.7741 181.113 52.0716 180.574 52.2858C180.042 52.4921 179.459 52.5952 178.825 52.5952ZM178.825 51.5361C179.285 51.5361 179.709 51.4568 180.098 51.2981C180.495 51.1394 180.836 50.9173 181.121 50.6317C181.415 50.3382 181.641 49.997 181.8 49.6083C181.966 49.2196 182.05 48.7951 182.05 48.335C182.05 47.8749 181.966 47.4504 181.8 47.0617C181.641 46.673 181.415 46.3358 181.121 46.0502C180.836 45.7567 180.495 45.5306 180.098 45.3719C179.709 45.2132 179.285 45.1339 178.825 45.1339C178.357 45.1339 177.924 45.2132 177.528 45.3719C177.139 45.5306 176.798 45.7567 176.504 46.0502C176.211 46.3358 175.981 46.673 175.814 47.0617C175.655 47.4504 175.576 47.8749 175.576 48.335C175.576 48.7951 175.655 49.2196 175.814 49.6083C175.981 49.997 176.211 50.3382 176.504 50.6317C176.798 50.9173 177.139 51.1394 177.528 51.2981C177.924 51.4568 178.357 51.5361 178.825 51.5361ZM185.058 52.5V44.17H186.034L189.771 50.4651H189.247L192.936 44.17H193.912L193.924 52.5H192.781L192.77 45.9669H193.043L189.759 51.4885H189.211L185.903 45.9669H186.201V52.5H185.058ZM196.424 52.5V44.17H197.4L201.136 50.4651H200.613L204.302 44.17H205.277L205.289 52.5H204.147L204.135 45.9669H204.409L201.124 51.4885H200.577L197.269 45.9669H197.566V52.5H196.424ZM208.872 47.7638H213.156V48.7753H208.872V47.7638ZM208.979 51.4647H213.834V52.5H207.789V44.17H213.668V45.2053H208.979V51.4647ZM215.761 52.5V44.17H219.01C219.74 44.17 220.363 44.285 220.878 44.5151C221.394 44.7452 221.791 45.0784 222.068 45.5147C222.346 45.951 222.485 46.4707 222.485 47.0736C222.485 47.6765 222.346 48.1962 222.068 48.6325C221.791 49.0609 221.394 49.3901 220.878 49.6202C220.363 49.8503 219.74 49.9653 219.01 49.9653H216.416L216.951 49.4179V52.5H215.761ZM221.331 52.5L219.212 49.4774H220.486L222.628 52.5H221.331ZM216.951 49.5369L216.416 48.9538H218.974C219.736 48.9538 220.311 48.7912 220.7 48.4659C221.096 48.1327 221.295 47.6686 221.295 47.0736C221.295 46.4786 221.096 46.0185 220.7 45.6932C220.311 45.3679 219.736 45.2053 218.974 45.2053H216.416L216.951 44.6103V49.5369ZM228.132 52.5952C227.497 52.5952 226.91 52.4921 226.371 52.2858C225.839 52.0716 225.375 51.7741 224.979 51.3933C224.59 51.0046 224.284 50.5524 224.062 50.0367C223.84 49.521 223.729 48.9538 223.729 48.335C223.729 47.7162 223.84 47.149 224.062 46.6333C224.284 46.1176 224.594 45.6694 224.99 45.2886C225.387 44.8999 225.851 44.6024 226.383 44.3961C226.922 44.1819 227.509 44.0748 228.144 44.0748C228.787 44.0748 229.378 44.1859 229.917 44.408C230.464 44.6222 230.929 44.9435 231.309 45.3719L230.536 46.1216C230.219 45.7884 229.862 45.5425 229.465 45.3838C229.068 45.2172 228.644 45.1339 228.192 45.1339C227.724 45.1339 227.287 45.2132 226.883 45.3719C226.486 45.5306 226.141 45.7527 225.847 46.0383C225.554 46.3239 225.324 46.665 225.157 47.0617C224.998 47.4504 224.919 47.8749 224.919 48.335C224.919 48.7951 224.998 49.2235 225.157 49.6202C225.324 50.0089 225.554 50.3461 225.847 50.6317C226.141 50.9173 226.486 51.1394 226.883 51.2981C227.287 51.4568 227.724 51.5361 228.192 51.5361C228.644 51.5361 229.068 51.4568 229.465 51.2981C229.862 51.1315 230.219 50.8776 230.536 50.5365L231.309 51.2862C230.929 51.7146 230.464 52.0399 229.917 52.262C229.378 52.4841 228.783 52.5952 228.132 52.5952ZM234.09 47.7638H238.374V48.7753H234.09V47.7638ZM234.197 51.4647H239.052V52.5H233.007V44.17H238.886V45.2053H234.197V51.4647ZM246.602 52.5952C245.968 52.5952 245.361 52.5 244.782 52.3096C244.203 52.1113 243.746 51.8574 243.413 51.548L243.854 50.6198C244.171 50.8975 244.576 51.1275 245.067 51.31C245.559 51.4925 246.071 51.5837 246.602 51.5837C247.086 51.5837 247.479 51.5282 247.781 51.4171C248.082 51.306 248.304 51.1553 248.447 50.9649C248.59 50.7666 248.661 50.5444 248.661 50.2985C248.661 50.0129 248.566 49.7828 248.376 49.6083C248.193 49.4338 247.951 49.2949 247.65 49.1918C247.356 49.0807 247.031 48.9855 246.674 48.9062C246.317 48.8269 245.956 48.7356 245.591 48.6325C245.234 48.5214 244.905 48.3826 244.603 48.216C244.31 48.0494 244.072 47.8273 243.889 47.5496C243.707 47.264 243.616 46.8991 243.616 46.4548C243.616 46.0264 243.727 45.6337 243.949 45.2767C244.179 44.9118 244.528 44.6222 244.996 44.408C245.472 44.1859 246.075 44.0748 246.805 44.0748C247.289 44.0748 247.769 44.1383 248.245 44.2652C248.721 44.3921 249.133 44.5746 249.482 44.8126L249.09 45.7646C248.733 45.5266 248.356 45.356 247.959 45.2529C247.562 45.1418 247.178 45.0863 246.805 45.0863C246.337 45.0863 245.952 45.1458 245.65 45.2648C245.349 45.3838 245.127 45.5425 244.984 45.7408C244.849 45.9391 244.782 46.1613 244.782 46.4072C244.782 46.7007 244.873 46.9348 245.055 47.1093C245.246 47.2838 245.488 47.4227 245.781 47.5258C246.083 47.6289 246.412 47.7241 246.769 47.8114C247.126 47.8907 247.483 47.982 247.84 48.0851C248.205 48.1882 248.534 48.3231 248.828 48.4897C249.129 48.6563 249.371 48.8784 249.554 49.1561C249.736 49.4338 249.827 49.7908 249.827 50.2271C249.827 50.6476 249.712 51.0403 249.482 51.4052C249.252 51.7622 248.895 52.0518 248.411 52.2739C247.935 52.4881 247.332 52.5952 246.602 52.5952ZM255.017 52.5952C253.922 52.5952 253.061 52.2818 252.435 51.6551C251.808 51.0284 251.495 50.1121 251.495 48.9062V44.17H252.685V48.8586C252.685 49.7868 252.887 50.4651 253.291 50.8935C253.704 51.3219 254.283 51.5361 255.029 51.5361C255.782 51.5361 256.362 51.3219 256.766 50.8935C257.179 50.4651 257.385 49.7868 257.385 48.8586V44.17H258.539V48.9062C258.539 50.1121 258.226 51.0284 257.599 51.6551C256.98 52.2818 256.12 52.5952 255.017 52.5952ZM264.704 52.5952C264.069 52.5952 263.482 52.4921 262.942 52.2858C262.411 52.0716 261.947 51.7741 261.55 51.3933C261.161 51.0046 260.856 50.5524 260.634 50.0367C260.412 49.521 260.301 48.9538 260.301 48.335C260.301 47.7162 260.412 47.149 260.634 46.6333C260.856 46.1176 261.165 45.6694 261.562 45.2886C261.959 44.8999 262.423 44.6024 262.954 44.3961C263.494 44.1819 264.081 44.0748 264.716 44.0748C265.358 44.0748 265.949 44.1859 266.489 44.408C267.036 44.6222 267.5 44.9435 267.881 45.3719L267.107 46.1216C266.79 45.7884 266.433 45.5425 266.036 45.3838C265.64 45.2172 265.215 45.1339 264.763 45.1339C264.295 45.1339 263.859 45.2132 263.454 45.3719C263.058 45.5306 262.712 45.7527 262.419 46.0383C262.125 46.3239 261.895 46.665 261.729 47.0617C261.57 47.4504 261.491 47.8749 261.491 48.335C261.491 48.7951 261.57 49.2235 261.729 49.6202C261.895 50.0089 262.125 50.3461 262.419 50.6317C262.712 50.9173 263.058 51.1394 263.454 51.2981C263.859 51.4568 264.295 51.5361 264.763 51.5361C265.215 51.5361 265.64 51.4568 266.036 51.2981C266.433 51.1315 266.79 50.8776 267.107 50.5365L267.881 51.2862C267.5 51.7146 267.036 52.0399 266.489 52.262C265.949 52.4841 265.354 52.5952 264.704 52.5952ZM273.129 52.5952C272.494 52.5952 271.907 52.4921 271.368 52.2858C270.836 52.0716 270.372 51.7741 269.975 51.3933C269.587 51.0046 269.281 50.5524 269.059 50.0367C268.837 49.521 268.726 48.9538 268.726 48.335C268.726 47.7162 268.837 47.149 269.059 46.6333C269.281 46.1176 269.591 45.6694 269.987 45.2886C270.384 44.8999 270.848 44.6024 271.38 44.3961C271.919 44.1819 272.506 44.0748 273.141 44.0748C273.783 44.0748 274.375 44.1859 274.914 44.408C275.461 44.6222 275.925 44.9435 276.306 45.3719L275.533 46.1216C275.215 45.7884 274.858 45.5425 274.462 45.3838C274.065 45.2172 273.641 45.1339 273.188 45.1339C272.72 45.1339 272.284 45.2132 271.879 45.3719C271.483 45.5306 271.138 45.7527 270.844 46.0383C270.551 46.3239 270.321 46.665 270.154 47.0617C269.995 47.4504 269.916 47.8749 269.916 48.335C269.916 48.7951 269.995 49.2235 270.154 49.6202C270.321 50.0089 270.551 50.3461 270.844 50.6317C271.138 50.9173 271.483 51.1394 271.879 51.2981C272.284 51.4568 272.72 51.5361 273.188 51.5361C273.641 51.5361 274.065 51.4568 274.462 51.2981C274.858 51.1315 275.215 50.8776 275.533 50.5365L276.306 51.2862C275.925 51.7146 275.461 52.0399 274.914 52.262C274.375 52.4841 273.78 52.5952 273.129 52.5952ZM279.087 47.7638H283.371V48.7753H279.087V47.7638ZM279.194 51.4647H284.049V52.5H278.004V44.17H283.882V45.2053H279.194V51.4647ZM288.404 52.5952C287.769 52.5952 287.162 52.5 286.583 52.3096C286.004 52.1113 285.548 51.8574 285.214 51.548L285.655 50.6198C285.972 50.8975 286.377 51.1275 286.868 51.31C287.36 51.4925 287.872 51.5837 288.404 51.5837C288.887 51.5837 289.28 51.5282 289.582 51.4171C289.883 51.306 290.105 51.1553 290.248 50.9649C290.391 50.7666 290.462 50.5444 290.462 50.2985C290.462 50.0129 290.367 49.7828 290.177 49.6083C289.994 49.4338 289.752 49.2949 289.451 49.1918C289.157 49.0807 288.832 48.9855 288.475 48.9062C288.118 48.8269 287.757 48.7356 287.392 48.6325C287.035 48.5214 286.706 48.3826 286.404 48.216C286.111 48.0494 285.873 47.8273 285.69 47.5496C285.508 47.264 285.417 46.8991 285.417 46.4548C285.417 46.0264 285.528 45.6337 285.75 45.2767C285.98 44.9118 286.329 44.6222 286.797 44.408C287.273 44.1859 287.876 44.0748 288.606 44.0748C289.09 44.0748 289.57 44.1383 290.046 44.2652C290.522 44.3921 290.934 44.5746 291.283 44.8126L290.891 45.7646C290.534 45.5266 290.157 45.356 289.76 45.2529C289.363 45.1418 288.979 45.0863 288.606 45.0863C288.138 45.0863 287.753 45.1458 287.452 45.2648C287.15 45.3838 286.928 45.5425 286.785 45.7408C286.65 45.9391 286.583 46.1613 286.583 46.4072C286.583 46.7007 286.674 46.9348 286.857 47.1093C287.047 47.2838 287.289 47.4227 287.582 47.5258C287.884 47.6289 288.213 47.7241 288.57 47.8114C288.927 47.8907 289.284 47.982 289.641 48.0851C290.006 48.1882 290.335 48.3231 290.629 48.4897C290.93 48.6563 291.172 48.8784 291.355 49.1561C291.537 49.4338 291.628 49.7908 291.628 50.2271C291.628 50.6476 291.513 51.0403 291.283 51.4052C291.053 51.7622 290.696 52.0518 290.212 52.2739C289.736 52.4881 289.133 52.5952 288.404 52.5952ZM295.795 52.5952C295.16 52.5952 294.553 52.5 293.974 52.3096C293.395 52.1113 292.939 51.8574 292.605 51.548L293.046 50.6198C293.363 50.8975 293.768 51.1275 294.259 51.31C294.751 51.4925 295.263 51.5837 295.795 51.5837C296.279 51.5837 296.671 51.5282 296.973 51.4171C297.274 51.306 297.496 51.1553 297.639 50.9649C297.782 50.7666 297.853 50.5444 297.853 50.2985C297.853 50.0129 297.758 49.7828 297.568 49.6083C297.385 49.4338 297.143 49.2949 296.842 49.1918C296.548 49.0807 296.223 48.9855 295.866 48.9062C295.509 48.8269 295.148 48.7356 294.783 48.6325C294.426 48.5214 294.097 48.3826 293.795 48.216C293.502 48.0494 293.264 47.8273 293.081 47.5496C292.899 47.264 292.808 46.8991 292.808 46.4548C292.808 46.0264 292.919 45.6337 293.141 45.2767C293.371 44.9118 293.72 44.6222 294.188 44.408C294.664 44.1859 295.267 44.0748 295.997 44.0748C296.481 44.0748 296.961 44.1383 297.437 44.2652C297.913 44.3921 298.325 44.5746 298.674 44.8126L298.282 45.7646C297.925 45.5266 297.548 45.356 297.151 45.2529C296.755 45.1418 296.37 45.0863 295.997 45.0863C295.529 45.0863 295.144 45.1458 294.843 45.2648C294.541 45.3838 294.319 45.5425 294.176 45.7408C294.041 45.9391 293.974 46.1613 293.974 46.4072C293.974 46.7007 294.065 46.9348 294.248 47.1093C294.438 47.2838 294.68 47.4227 294.973 47.5258C295.275 47.6289 295.604 47.7241 295.961 47.8114C296.318 47.8907 296.675 47.982 297.032 48.0851C297.397 48.1882 297.726 48.3231 298.02 48.4897C298.321 48.6563 298.563 48.8784 298.746 49.1561C298.928 49.4338 299.019 49.7908 299.019 50.2271C299.019 50.6476 298.904 51.0403 298.674 51.4052C298.444 51.7622 298.087 52.0518 297.603 52.2739C297.127 52.4881 296.524 52.5952 295.795 52.5952Z" fill="#454F5B"/>
<a href="http://localhost:3000/">
<rect fill="black" fill-opacity="0" y="1.74695" width="223.507" height="14.5061"/>
</a>
</svg>
